<svg width="241" height="404" viewBox="0 0 241 404" fill="none" xmlns="http://www.w3.org/2000/svg">
<path d="M-163 0H-159V4H-163V0Z" fill="#E5E7EB"/>
<path d="M-143 0H-139V4H-143V0Z" fill="#E5E7EB"/>
<path d="M-123 0H-119V4H-123V0Z" fill="#E5E7EB"/>
<path d="M-103 0H-99V4H-103V0Z" fill="#E5E7EB"/>
<path d="M-83 0H-79V4H-83V0Z" fill="#E5E7EB"/>
<path d="M-63 0H-59V4H-63V0Z" fill="#E5E7EB"/>
<path d="M-43 0H-39V4H-43V0Z" fill="#E5E7EB"/>
<path d="M-23 0H-19V4H-23V0Z" fill="#E5E7EB"/>
<path d="M-3 0H1V4H-3V0Z" fill="#E5E7EB"/>
<path d="M17 0H21V4H17V0Z" fill="#E5E7EB"/>
<path d="M37 0H41V4H37V0Z" fill="#E5E7EB"/>
<path d="M57 0H61V4H57V0Z" fill="#E5E7EB"/>
<path d="M77 0H81V4H77V0Z" fill="#E5E7EB"/>
<path d="M97 0H101V4H97V0Z" fill="#E5E7EB"/>
<path d="M117 0H121V4H117V0Z" fill="#E5E7EB"/>
<path d="M137 0H141V4H137V0Z" fill="#E5E7EB"/>
<path d="M157 0H161V4H157V0Z" fill="#E5E7EB"/>
<path d="M177 0H181V4H177V0Z" fill="#E5E7EB"/>
<path d="M197 0H201V4H197V0Z" fill="#E5E7EB"/>
<path d="M217 0H221V4H217V0Z" fill="#E5E7EB"/>
<path d="M237 0H241V4H237V0Z" fill="#E5E7EB"/>
<path d="M-163 20H-159V24H-163V20Z" fill="#E5E7EB"/>
<path d="M-143 20H-139V24H-143V20Z" fill="#E5E7EB"/>
<path d="M-123 20H-119V24H-123V20Z" fill="#E5E7EB"/>
<path d="M-103 20H-99V24H-103V20Z" fill="#E5E7EB"/>
<path d="M-83 20H-79V24H-83V20Z" fill="#E5E7EB"/>
<path d="M-63 20H-59V24H-63V20Z" fill="#E5E7EB"/>
<path d="M-43 20H-39V24H-43V20Z" fill="#E5E7EB"/>
<path d="M-23 20H-19V24H-23V20Z" fill="#E5E7EB"/>
<path d="M-3 20H1V24H-3V20Z" fill="#E5E7EB"/>
<path d="M17 20H21V24H17V20Z" fill="#E5E7EB"/>
<path d="M37 20H41V24H37V20Z" fill="#E5E7EB"/>
<path d="M57 20H61V24H57V20Z" fill="#E5E7EB"/>
<path d="M77 20H81V24H77V20Z" fill="#E5E7EB"/>
<path d="M97 20H101V24H97V20Z" fill="#E5E7EB"/>
<path d="M117 20H121V24H117V20Z" fill="#E5E7EB"/>
<path d="M137 20H141V24H137V20Z" fill="#E5E7EB"/>
<path d="M157 20H161V24H157V20Z" fill="#E5E7EB"/>
<path d="M177 20H181V24H177V20Z" fill="#E5E7EB"/>
<path d="M197 20H201V24H197V20Z" fill="#E5E7EB"/>
<path d="M217 20H221V24H217V20Z" fill="#E5E7EB"/>
<path d="M237 20H241V24H237V20Z" fill="#E5E7EB"/>
<path d="M-163 40H-159V44H-163V40Z" fill="#E5E7EB"/>
<path d="M-143 40H-139V44H-143V40Z" fill="#E5E7EB"/>
<path d="M-123 40H-119V44H-123V40Z" fill="#E5E7EB"/>
<path d="M-103 40H-99V44H-103V40Z" fill="#E5E7EB"/>
<path d="M-83 40H-79V44H-83V40Z" fill="#E5E7EB"/>
<path d="M-63 40H-59V44H-63V40Z" fill="#E5E7EB"/>
<path d="M-43 40H-39V44H-43V40Z" fill="#E5E7EB"/>
<path d="M-23 40H-19V44H-23V40Z" fill="#E5E7EB"/>
<path d="M-3 40H1V44H-3V40Z" fill="#E5E7EB"/>
<path d="M17 40H21V44H17V40Z" fill="#E5E7EB"/>
<path d="M37 40H41V44H37V40Z" fill="#E5E7EB"/>
<path d="M57 40H61V44H57V40Z" fill="#E5E7EB"/>
<path d="M77 40H81V44H77V40Z" fill="#E5E7EB"/>
<path d="M97 40H101V44H97V40Z" fill="#E5E7EB"/>
<path d="M117 40H121V44H117V40Z" fill="#E5E7EB"/>
<path d="M137 40H141V44H137V40Z" fill="#E5E7EB"/>
<path d="M157 40H161V44H157V40Z" fill="#E5E7EB"/>
<path d="M177 40H181V44H177V40Z" fill="#E5E7EB"/>
<path d="M197 40H201V44H197V40Z" fill="#E5E7EB"/>
<path d="M217 40H221V44H217V40Z" fill="#E5E7EB"/>
<path d="M237 40H241V44H237V40Z" fill="#E5E7EB"/>
<path d="M-163 60H-159V64H-163V60Z" fill="#E5E7EB"/>
<path d="M-143 60H-139V64H-143V60Z" fill="#E5E7EB"/>
<path d="M-123 60H-119V64H-123V60Z" fill="#E5E7EB"/>
<path d="M-103 60H-99V64H-103V60Z" fill="#E5E7EB"/>
<path d="M-83 60H-79V64H-83V60Z" fill="#E5E7EB"/>
<path d="M-63 60H-59V64H-63V60Z" fill="#E5E7EB"/>
<path d="M-43 60H-39V64H-43V60Z" fill="#E5E7EB"/>
<path d="M-23 60H-19V64H-23V60Z" fill="#E5E7EB"/>
<path d="M-3 60H1V64H-3V60Z" fill="#E5E7EB"/>
<path d="M17 60H21V64H17V60Z" fill="#E5E7EB"/>
<path d="M37 60H41V64H37V60Z" fill="#E5E7EB"/>
<path d="M57 60H61V64H57V60Z" fill="#E5E7EB"/>
<path d="M77 60H81V64H77V60Z" fill="#E5E7EB"/>
<path d="M97 60H101V64H97V60Z" fill="#E5E7EB"/>
<path d="M117 60H121V64H117V60Z" fill="#E5E7EB"/>
<path d="M137 60H141V64H137V60Z" fill="#E5E7EB"/>
<path d="M157 60H161V64H157V60Z" fill="#E5E7EB"/>
<path d="M177 60H181V64H177V60Z" fill="#E5E7EB"/>
<path d="M197 60H201V64H197V60Z" fill="#E5E7EB"/>
<path d="M217 60H221V64H217V60Z" fill="#E5E7EB"/>
<path d="M237 60H241V64H237V60Z" fill="#E5E7EB"/>
<path d="M-163 80H-159V84H-163V80Z" fill="#E5E7EB"/>
<path d="M-143 80H-139V84H-143V80Z" fill="#E5E7EB"/>
<path d="M-123 80H-119V84H-123V80Z" fill="#E5E7EB"/>
<path d="M-103 80H-99V84H-103V80Z" fill="#E5E7EB"/>
<path d="M-83 80H-79V84H-83V80Z" fill="#E5E7EB"/>
<path d="M-63 80H-59V84H-63V80Z" fill="#E5E7EB"/>
<path d="M-43 80H-39V84H-43V80Z" fill="#E5E7EB"/>
<path d="M-23 80H-19V84H-23V80Z" fill="#E5E7EB"/>
<path d="M-3 80H1V84H-3V80Z" fill="#E5E7EB"/>
<path d="M17 80H21V84H17V80Z" fill="#E5E7EB"/>
<path d="M37 80H41V84H37V80Z" fill="#E5E7EB"/>
<path d="M57 80H61V84H57V80Z" fill="#E5E7EB"/>
<path d="M77 80H81V84H77V80Z" fill="#E5E7EB"/>
<path d="M97 80H101V84H97V80Z" fill="#E5E7EB"/>
<path d="M117 80H121V84H117V80Z" fill="#E5E7EB"/>
<path d="M137 80H141V84H137V80Z" fill="#E5E7EB"/>
<path d="M157 80H161V84H157V80Z" fill="#E5E7EB"/>
<path d="M177 80H181V84H177V80Z" fill="#E5E7EB"/>
<path d="M197 80H201V84H197V80Z" fill="#E5E7EB"/>
<path d="M217 80H221V84H217V80Z" fill="#E5E7EB"/>
<path d="M237 80H241V84H237V80Z" fill="#E5E7EB"/>
<path d="M-163 100H-159V104H-163V100Z" fill="#E5E7EB"/>
<path d="M-143 100H-139V104H-143V100Z" fill="#E5E7EB"/>
<path d="M-123 100H-119V104H-123V100Z" fill="#E5E7EB"/>
<path d="M-103 100H-99V104H-103V100Z" fill="#E5E7EB"/>
<path d="M-83 100H-79V104H-83V100Z" fill="#E5E7EB"/>
<path d="M-63 100H-59V104H-63V100Z" fill="#E5E7EB"/>
<path d="M-43 100H-39V104H-43V100Z" fill="#E5E7EB"/>
<path d="M-23 100H-19V104H-23V100Z" fill="#E5E7EB"/>
<path d="M-3 100H1V104H-3V100Z" fill="#E5E7EB"/>
<path d="M17 100H21V104H17V100Z" fill="#E5E7EB"/>
<path d="M37 100H41V104H37V100Z" fill="#E5E7EB"/>
<path d="M57 100H61V104H57V100Z" fill="#E5E7EB"/>
<path d="M77 100H81V104H77V100Z" fill="#E5E7EB"/>
<path d="M97 100H101V104H97V100Z" fill="#E5E7EB"/>
<path d="M117 100H121V104H117V100Z" fill="#E5E7EB"/>
<path d="M137 100H141V104H137V100Z" fill="#E5E7EB"/>
<path d="M157 100H161V104H157V100Z" fill="#E5E7EB"/>
<path d="M177 100H181V104H177V100Z" fill="#E5E7EB"/>
<path d="M197 100H201V104H197V100Z" fill="#E5E7EB"/>
<path d="M217 100H221V104H217V100Z" fill="#E5E7EB"/>
<path d="M237 100H241V104H237V100Z" fill="#E5E7EB"/>
<path d="M-163 120H-159V124H-163V120Z" fill="#E5E7EB"/>
<path d="M-143 120H-139V124H-143V120Z" fill="#E5E7EB"/>
<path d="M-123 120H-119V124H-123V120Z" fill="#E5E7EB"/>
<path d="M-103 120H-99V124H-103V120Z" fill="#E5E7EB"/>
<path d="M-83 120H-79V124H-83V120Z" fill="#E5E7EB"/>
<path d="M-63 120H-59V124H-63V120Z" fill="#E5E7EB"/>
<path d="M-43 120H-39V124H-43V120Z" fill="#E5E7EB"/>
<path d="M-23 120H-19V124H-23V120Z" fill="#E5E7EB"/>
<path d="M-3 120H1V124H-3V120Z" fill="#E5E7EB"/>
<path d="M17 120H21V124H17V120Z" fill="#E5E7EB"/>
<path d="M37 120H41V124H37V120Z" fill="#E5E7EB"/>
<path d="M57 120H61V124H57V120Z" fill="#E5E7EB"/>
<path d="M77 120H81V124H77V120Z" fill="#E5E7EB"/>
<path d="M97 120H101V124H97V120Z" fill="#E5E7EB"/>
<path d="M117 120H121V124H117V120Z" fill="#E5E7EB"/>
<path d="M137 120H141V124H137V120Z" fill="#E5E7EB"/>
<path d="M157 120H161V124H157V120Z" fill="#E5E7EB"/>
<path d="M177 120H181V124H177V120Z" fill="#E5E7EB"/>
<path d="M197 120H201V124H197V120Z" fill="#E5E7EB"/>
<path d="M217 120H221V124H217V120Z" fill="#E5E7EB"/>
<path d="M237 120H241V124H237V120Z" fill="#E5E7EB"/>
<path d="M-163 140H-159V144H-163V140Z" fill="#E5E7EB"/>
<path d="M-143 140H-139V144H-143V140Z" fill="#E5E7EB"/>
<path d="M-123 140H-119V144H-123V140Z" fill="#E5E7EB"/>
<path d="M-103 140H-99V144H-103V140Z" fill="#E5E7EB"/>
<path d="M-83 140H-79V144H-83V140Z" fill="#E5E7EB"/>
<path d="M-63 140H-59V144H-63V140Z" fill="#E5E7EB"/>
<path d="M-43 140H-39V144H-43V140Z" fill="#E5E7EB"/>
<path d="M-23 140H-19V144H-23V140Z" fill="#E5E7EB"/>
<path d="M-3 140H1V144H-3V140Z" fill="#E5E7EB"/>
<path d="M17 140H21V144H17V140Z" fill="#E5E7EB"/>
<path d="M37 140H41V144H37V140Z" fill="#E5E7EB"/>
<path d="M57 140H61V144H57V140Z" fill="#E5E7EB"/>
<path d="M77 140H81V144H77V140Z" fill="#E5E7EB"/>
<path d="M97 140H101V144H97V140Z" fill="#E5E7EB"/>
<path d="M117 140H121V144H117V140Z" fill="#E5E7EB"/>
<path d="M137 140H141V144H137V140Z" fill="#E5E7EB"/>
<path d="M157 140H161V144H157V140Z" fill="#E5E7EB"/>
<path d="M177 140H181V144H177V140Z" fill="#E5E7EB"/>
<path d="M197 140H201V144H197V140Z" fill="#E5E7EB"/>
<path d="M217 140H221V144H217V140Z" fill="#E5E7EB"/>
<path d="M237 140H241V144H237V140Z" fill="#E5E7EB"/>
<path d="M-163 160H-159V164H-163V160Z" fill="#E5E7EB"/>
<path d="M-143 160H-139V164H-143V160Z" fill="#E5E7EB"/>
<path d="M-123 160H-119V164H-123V160Z" fill="#E5E7EB"/>
<path d="M-103 160H-99V164H-103V160Z" fill="#E5E7EB"/>
<path d="M-83 160H-79V164H-83V160Z" fill="#E5E7EB"/>
<path d="M-63 160H-59V164H-63V160Z" fill="#E5E7EB"/>
<path d="M-43 160H-39V164H-43V160Z" fill="#E5E7EB"/>
<path d="M-23 160H-19V164H-23V160Z" fill="#E5E7EB"/>
<path d="M-3 160H1V164H-3V160Z" fill="#E5E7EB"/>
<path d="M17 160H21V164H17V160Z" fill="#E5E7EB"/>
<path d="M37 160H41V164H37V160Z" fill="#E5E7EB"/>
<path d="M57 160H61V164H57V160Z" fill="#E5E7EB"/>
<path d="M77 160H81V164H77V160Z" fill="#E5E7EB"/>
<path d="M97 160H101V164H97V160Z" fill="#E5E7EB"/>
<path d="M117 160H121V164H117V160Z" fill="#E5E7EB"/>
<path d="M137 160H141V164H137V160Z" fill="#E5E7EB"/>
<path d="M157 160H161V164H157V160Z" fill="#E5E7EB"/>
<path d="M177 160H181V164H177V160Z" fill="#E5E7EB"/>
<path d="M197 160H201V164H197V160Z" fill="#E5E7EB"/>
<path d="M217 160H221V164H217V160Z" fill="#E5E7EB"/>
<path d="M237 160H241V164H237V160Z" fill="#E5E7EB"/>
<path d="M-163 180H-159V184H-163V180Z" fill="#E5E7EB"/>
<path d="M-143 180H-139V184H-143V180Z" fill="#E5E7EB"/>
<path d="M-123 180H-119V184H-123V180Z" fill="#E5E7EB"/>
<path d="M-103 180H-99V184H-103V180Z" fill="#E5E7EB"/>
<path d="M-83 180H-79V184H-83V180Z" fill="#E5E7EB"/>
<path d="M-63 180H-59V184H-63V180Z" fill="#E5E7EB"/>
<path d="M-43 180H-39V184H-43V180Z" fill="#E5E7EB"/>
<path d="M-23 180H-19V184H-23V180Z" fill="#E5E7EB"/>
<path d="M-3 180H1V184H-3V180Z" fill="#E5E7EB"/>
<path d="M17 180H21V184H17V180Z" fill="#E5E7EB"/>
<path d="M37 180H41V184H37V180Z" fill="#E5E7EB"/>
<path d="M57 180H61V184H57V180Z" fill="#E5E7EB"/>
<path d="M77 180H81V184H77V180Z" fill="#E5E7EB"/>
<path d="M97 180H101V184H97V180Z" fill="#E5E7EB"/>
<path d="M117 180H121V184H117V180Z" fill="#E5E7EB"/>
<path d="M137 180H141V184H137V180Z" fill="#E5E7EB"/>
<path d="M157 180H161V184H157V180Z" fill="#E5E7EB"/>
<path d="M177 180H181V184H177V180Z" fill="#E5E7EB"/>
<path d="M197 180H201V184H197V180Z" fill="#E5E7EB"/>
<path d="M217 180H221V184H217V180Z" fill="#E5E7EB"/>
<path d="M237 180H241V184H237V180Z" fill="#E5E7EB"/>
<path d="M-163 200H-159V204H-163V200Z" fill="#E5E7EB"/>
<path d="M-143 200H-139V204H-143V200Z" fill="#E5E7EB"/>
<path d="M-123 200H-119V204H-123V200Z" fill="#E5E7EB"/>
<path d="M-103 200H-99V204H-103V200Z" fill="#E5E7EB"/>
<path d="M-83 200H-79V204H-83V200Z" fill="#E5E7EB"/>
<path d="M-63 200H-59V204H-63V200Z" fill="#E5E7EB"/>
<path d="M-43 200H-39V204H-43V200Z" fill="#E5E7EB"/>
<path d="M-23 200H-19V204H-23V200Z" fill="#E5E7EB"/>
<path d="M-3 200H1V204H-3V200Z" fill="#E5E7EB"/>
<path d="M17 200H21V204H17V200Z" fill="#E5E7EB"/>
<path d="M37 200H41V204H37V200Z" fill="#E5E7EB"/>
<path d="M57 200H61V204H57V200Z" fill="#E5E7EB"/>
<path d="M77 200H81V204H77V200Z" fill="#E5E7EB"/>
<path d="M97 200H101V204H97V200Z" fill="#E5E7EB"/>
<path d="M117 200H121V204H117V200Z" fill="#E5E7EB"/>
<path d="M137 200H141V204H137V200Z" fill="#E5E7EB"/>
<path d="M157 200H161V204H157V200Z" fill="#E5E7EB"/>
<path d="M177 200H181V204H177V200Z" fill="#E5E7EB"/>
<path d="M197 200H201V204H197V200Z" fill="#E5E7EB"/>
<path d="M217 200H221V204H217V200Z" fill="#E5E7EB"/>
<path d="M237 200H241V204H237V200Z" fill="#E5E7EB"/>
<path d="M-163 220H-159V224H-163V220Z" fill="#E5E7EB"/>
<path d="M-143 220H-139V224H-143V220Z" fill="#E5E7EB"/>
<path d="M-123 220H-119V224H-123V220Z" fill="#E5E7EB"/>
<path d="M-103 220H-99V224H-103V220Z" fill="#E5E7EB"/>
<path d="M-83 220H-79V224H-83V220Z" fill="#E5E7EB"/>
<path d="M-63 220H-59V224H-63V220Z" fill="#E5E7EB"/>
<path d="M-43 220H-39V224H-43V220Z" fill="#E5E7EB"/>
<path d="M-23 220H-19V224H-23V220Z" fill="#E5E7EB"/>
<path d="M-3 220H1V224H-3V220Z" fill="#E5E7EB"/>
<path d="M17 220H21V224H17V220Z" fill="#E5E7EB"/>
<path d="M37 220H41V224H37V220Z" fill="#E5E7EB"/>
<path d="M57 220H61V224H57V220Z" fill="#E5E7EB"/>
<path d="M77 220H81V224H77V220Z" fill="#E5E7EB"/>
<path d="M97 220H101V224H97V220Z" fill="#E5E7EB"/>
<path d="M117 220H121V224H117V220Z" fill="#E5E7EB"/>
<path d="M137 220H141V224H137V220Z" fill="#E5E7EB"/>
<path d="M157 220H161V224H157V220Z" fill="#E5E7EB"/>
<path d="M177 220H181V224H177V220Z" fill="#E5E7EB"/>
<path d="M197 220H201V224H197V220Z" fill="#E5E7EB"/>
<path d="M217 220H221V224H217V220Z" fill="#E5E7EB"/>
<path d="M237 220H241V224H237V220Z" fill="#E5E7EB"/>
<path d="M-163 240H-159V244H-163V240Z" fill="#E5E7EB"/>
<path d="M-143 240H-139V244H-143V240Z" fill="#E5E7EB"/>
<path d="M-123 240H-119V244H-123V240Z" fill="#E5E7EB"/>
<path d="M-103 240H-99V244H-103V240Z" fill="#E5E7EB"/>
<path d="M-83 240H-79V244H-83V240Z" fill="#E5E7EB"/>
<path d="M-63 240H-59V244H-63V240Z" fill="#E5E7EB"/>
<path d="M-43 240H-39V244H-43V240Z" fill="#E5E7EB"/>
<path d="M-23 240H-19V244H-23V240Z" fill="#E5E7EB"/>
<path d="M-3 240H1V244H-3V240Z" fill="#E5E7EB"/>
<path d="M17 240H21V244H17V240Z" fill="#E5E7EB"/>
<path d="M37 240H41V244H37V240Z" fill="#E5E7EB"/>
<path d="M57 240H61V244H57V240Z" fill="#E5E7EB"/>
<path d="M77 240H81V244H77V240Z" fill="#E5E7EB"/>
<path d="M97 240H101V244H97V240Z" fill="#E5E7EB"/>
<path d="M117 240H121V244H117V240Z" fill="#E5E7EB"/>
<path d="M137 240H141V244H137V240Z" fill="#E5E7EB"/>
<path d="M157 240H161V244H157V240Z" fill="#E5E7EB"/>
<path d="M177 240H181V244H177V240Z" fill="#E5E7EB"/>
<path d="M197 240H201V244H197V240Z" fill="#E5E7EB"/>
<path d="M217 240H221V244H217V240Z" fill="#E5E7EB"/>
<path d="M237 240H241V244H237V240Z" fill="#E5E7EB"/>
<path d="M-163 260H-159V264H-163V260Z" fill="#E5E7EB"/>
<path d="M-143 260H-139V264H-143V260Z" fill="#E5E7EB"/>
<path d="M-123 260H-119V264H-123V260Z" fill="#E5E7EB"/>
<path d="M-103 260H-99V264H-103V260Z" fill="#E5E7EB"/>
<path d="M-83 260H-79V264H-83V260Z" fill="#E5E7EB"/>
<path d="M-63 260H-59V264H-63V260Z" fill="#E5E7EB"/>
<path d="M-43 260H-39V264H-43V260Z" fill="#E5E7EB"/>
<path d="M-23 260H-19V264H-23V260Z" fill="#E5E7EB"/>
<path d="M-3 260H1V264H-3V260Z" fill="#E5E7EB"/>
<path d="M17 260H21V264H17V260Z" fill="#E5E7EB"/>
<path d="M37 260H41V264H37V260Z" fill="#E5E7EB"/>
<path d="M57 260H61V264H57V260Z" fill="#E5E7EB"/>
<path d="M77 260H81V264H77V260Z" fill="#E5E7EB"/>
<path d="M97 260H101V264H97V260Z" fill="#E5E7EB"/>
<path d="M117 260H121V264H117V260Z" fill="#E5E7EB"/>
<path d="M137 260H141V264H137V260Z" fill="#E5E7EB"/>
<path d="M157 260H161V264H157V260Z" fill="#E5E7EB"/>
<path d="M177 260H181V264H177V260Z" fill="#E5E7EB"/>
<path d="M197 260H201V264H197V260Z" fill="#E5E7EB"/>
<path d="M217 260H221V264H217V260Z" fill="#E5E7EB"/>
<path d="M237 260H241V264H237V260Z" fill="#E5E7EB"/>
<path d="M-163 280H-159V284H-163V280Z" fill="#E5E7EB"/>
<path d="M-143 280H-139V284H-143V280Z" fill="#E5E7EB"/>
<path d="M-123 280H-119V284H-123V280Z" fill="#E5E7EB"/>
<path d="M-103 280H-99V284H-103V280Z" fill="#E5E7EB"/>
<path d="M-83 280H-79V284H-83V280Z" fill="#E5E7EB"/>
<path d="M-63 280H-59V284H-63V280Z" fill="#E5E7EB"/>
<path d="M-43 280H-39V284H-43V280Z" fill="#E5E7EB"/>
<path d="M-23 280H-19V284H-23V280Z" fill="#E5E7EB"/>
<path d="M-3 280H1V284H-3V280Z" fill="#E5E7EB"/>
<path d="M17 280H21V284H17V280Z" fill="#E5E7EB"/>
<path d="M37 280H41V284H37V280Z" fill="#E5E7EB"/>
<path d="M57 280H61V284H57V280Z" fill="#E5E7EB"/>
<path d="M77 280H81V284H77V280Z" fill="#E5E7EB"/>
<path d="M97 280H101V284H97V280Z" fill="#E5E7EB"/>
<path d="M117 280H121V284H117V280Z" fill="#E5E7EB"/>
<path d="M137 280H141V284H137V280Z" fill="#E5E7EB"/>
<path d="M157 280H161V284H157V280Z" fill="#E5E7EB"/>
<path d="M177 280H181V284H177V280Z" fill="#E5E7EB"/>
<path d="M197 280H201V284H197V280Z" fill="#E5E7EB"/>
<path d="M217 280H221V284H217V280Z" fill="#E5E7EB"/>
<path d="M237 280H241V284H237V280Z" fill="#E5E7EB"/>
<path d="M-163 300H-159V304H-163V300Z" fill="#E5E7EB"/>
<path d="M-143 300H-139V304H-143V300Z" fill="#E5E7EB"/>
<path d="M-123 300H-119V304H-123V300Z" fill="#E5E7EB"/>
<path d="M-103 300H-99V304H-103V300Z" fill="#E5E7EB"/>
<path d="M-83 300H-79V304H-83V300Z" fill="#E5E7EB"/>
<path d="M-63 300H-59V304H-63V300Z" fill="#E5E7EB"/>
<path d="M-43 300H-39V304H-43V300Z" fill="#E5E7EB"/>
<path d="M-23 300H-19V304H-23V300Z" fill="#E5E7EB"/>
<path d="M-3 300H1V304H-3V300Z" fill="#E5E7EB"/>
<path d="M17 300H21V304H17V300Z" fill="#E5E7EB"/>
<path d="M37 300H41V304H37V300Z" fill="#E5E7EB"/>
<path d="M57 300H61V304H57V300Z" fill="#E5E7EB"/>
<path d="M77 300H81V304H77V300Z" fill="#E5E7EB"/>
<path d="M97 300H101V304H97V300Z" fill="#E5E7EB"/>
<path d="M117 300H121V304H117V300Z" fill="#E5E7EB"/>
<path d="M137 300H141V304H137V300Z" fill="#E5E7EB"/>
<path d="M157 300H161V304H157V300Z" fill="#E5E7EB"/>
<path d="M177 300H181V304H177V300Z" fill="#E5E7EB"/>
<path d="M197 300H201V304H197V300Z" fill="#E5E7EB"/>
<path d="M217 300H221V304H217V300Z" fill="#E5E7EB"/>
<path d="M237 300H241V304H237V300Z" fill="#E5E7EB"/>
<path d="M-163 320H-159V324H-163V320Z" fill="#E5E7EB"/>
<path d="M-143 320H-139V324H-143V320Z" fill="#E5E7EB"/>
<path d="M-123 320H-119V324H-123V320Z" fill="#E5E7EB"/>
<path d="M-103 320H-99V324H-103V320Z" fill="#E5E7EB"/>
<path d="M-83 320H-79V324H-83V320Z" fill="#E5E7EB"/>
<path d="M-63 320H-59V324H-63V320Z" fill="#E5E7EB"/>
<path d="M-43 320H-39V324H-43V320Z" fill="#E5E7EB"/>
<path d="M-23 320H-19V324H-23V320Z" fill="#E5E7EB"/>
<path d="M-3 320H1V324H-3V320Z" fill="#E5E7EB"/>
<path d="M17 320H21V324H17V320Z" fill="#E5E7EB"/>
<path d="M37 320H41V324H37V320Z" fill="#E5E7EB"/>
<path d="M57 320H61V324H57V320Z" fill="#E5E7EB"/>
<path d="M77 320H81V324H77V320Z" fill="#E5E7EB"/>
<path d="M97 320H101V324H97V320Z" fill="#E5E7EB"/>
<path d="M117 320H121V324H117V320Z" fill="#E5E7EB"/>
<path d="M137 320H141V324H137V320Z" fill="#E5E7EB"/>
<path d="M157 320H161V324H157V320Z" fill="#E5E7EB"/>
<path d="M177 320H181V324H177V320Z" fill="#E5E7EB"/>
<path d="M197 320H201V324H197V320Z" fill="#E5E7EB"/>
<path d="M217 320H221V324H217V320Z" fill="#E5E7EB"/>
<path d="M237 320H241V324H237V320Z" fill="#E5E7EB"/>
<path d="M-163 340H-159V344H-163V340Z" fill="#E5E7EB"/>
<path d="M-143 340H-139V344H-143V340Z" fill="#E5E7EB"/>
<path d="M-123 340H-119V344H-123V340Z" fill="#E5E7EB"/>
<path d="M-103 340H-99V344H-103V340Z" fill="#E5E7EB"/>
<path d="M-83 340H-79V344H-83V340Z" fill="#E5E7EB"/>
<path d="M-63 340H-59V344H-63V340Z" fill="#E5E7EB"/>
<path d="M-43 340H-39V344H-43V340Z" fill="#E5E7EB"/>
<path d="M-23 340H-19V344H-23V340Z" fill="#E5E7EB"/>
<path d="M-3 340H1V344H-3V340Z" fill="#E5E7EB"/>
<path d="M17 340H21V344H17V340Z" fill="#E5E7EB"/>
<path d="M37 340H41V344H37V340Z" fill="#E5E7EB"/>
<path d="M57 340H61V344H57V340Z" fill="#E5E7EB"/>
<path d="M77 340H81V344H77V340Z" fill="#E5E7EB"/>
<path d="M97 340H101V344H97V340Z" fill="#E5E7EB"/>
<path d="M117 340H121V344H117V340Z" fill="#E5E7EB"/>
<path d="M137 340H141V344H137V340Z" fill="#E5E7EB"/>
<path d="M157 340H161V344H157V340Z" fill="#E5E7EB"/>
<path d="M177 340H181V344H177V340Z" fill="#E5E7EB"/>
<path d="M197 340H201V344H197V340Z" fill="#E5E7EB"/>
<path d="M217 340H221V344H217V340Z" fill="#E5E7EB"/>
<path d="M237 340H241V344H237V340Z" fill="#E5E7EB"/>
<path d="M-163 360H-159V364H-163V360Z" fill="#E5E7EB"/>
<path d="M-143 360H-139V364H-143V360Z" fill="#E5E7EB"/>
<path d="M-123 360H-119V364H-123V360Z" fill="#E5E7EB"/>
<path d="M-103 360H-99V364H-103V360Z" fill="#E5E7EB"/>
<path d="M-83 360H-79V364H-83V360Z" fill="#E5E7EB"/>
<path d="M-63 360H-59V364H-63V360Z" fill="#E5E7EB"/>
<path d="M-43 360H-39V364H-43V360Z" fill="#E5E7EB"/>
<path d="M-23 360H-19V364H-23V360Z" fill="#E5E7EB"/>
<path d="M-3 360H1V364H-3V360Z" fill="#E5E7EB"/>
<path d="M17 360H21V364H17V360Z" fill="#E5E7EB"/>
<path d="M37 360H41V364H37V360Z" fill="#E5E7EB"/>
<path d="M57 360H61V364H57V360Z" fill="#E5E7EB"/>
<path d="M77 360H81V364H77V360Z" fill="#E5E7EB"/>
<path d="M97 360H101V364H97V360Z" fill="#E5E7EB"/>
<path d="M117 360H121V364H117V360Z" fill="#E5E7EB"/>
<path d="M137 360H141V364H137V360Z" fill="#E5E7EB"/>
<path d="M157 360H161V364H157V360Z" fill="#E5E7EB"/>
<path d="M177 360H181V364H177V360Z" fill="#E5E7EB"/>
<path d="M197 360H201V364H197V360Z" fill="#E5E7EB"/>
<path d="M217 360H221V364H217V360Z" fill="#E5E7EB"/>
<path d="M237 360H241V364H237V360Z" fill="#E5E7EB"/>
<path d="M-163 380H-159V384H-163V380Z" fill="#E5E7EB"/>
<path d="M-143 380H-139V384H-143V380Z" fill="#E5E7EB"/>
<path d="M-123 380H-119V384H-123V380Z" fill="#E5E7EB"/>
<path d="M-103 380H-99V384H-103V380Z" fill="#E5E7EB"/>
<path d="M-83 380H-79V384H-83V380Z" fill="#E5E7EB"/>
<path d="M-63 380H-59V384H-63V380Z" fill="#E5E7EB"/>
<path d="M-43 380H-39V384H-43V380Z" fill="#E5E7EB"/>
<path d="M-23 380H-19V384H-23V380Z" fill="#E5E7EB"/>
<path d="M-3 380H1V384H-3V380Z" fill="#E5E7EB"/>
<path d="M17 380H21V384H17V380Z" fill="#E5E7EB"/>
<path d="M37 380H41V384H37V380Z" fill="#E5E7EB"/>
<path d="M57 380H61V384H57V380Z" fill="#E5E7EB"/>
<path d="M77 380H81V384H77V380Z" fill="#E5E7EB"/>
<path d="M97 380H101V384H97V380Z" fill="#E5E7EB"/>
<path d="M117 380H121V384H117V380Z" fill="#E5E7EB"/>
<path d="M137 380H141V384H137V380Z" fill="#E5E7EB"/>
<path d="M157 380H161V384H157V380Z" fill="#E5E7EB"/>
<path d="M177 380H181V384H177V380Z" fill="#E5E7EB"/>
<path d="M197 380H201V384H197V380Z" fill="#E5E7EB"/>
<path d="M217 380H221V384H217V380Z" fill="#E5E7EB"/>
<path d="M237 380H241V384H237V380Z" fill="#E5E7EB"/>
<path d="M-163 400H-159V404H-163V400Z" fill="#E5E7EB"/>
<path d="M-143 400H-139V404H-143V400Z" fill="#E5E7EB"/>
<path d="M-123 400H-119V404H-123V400Z" fill="#E5E7EB"/>
<path d="M-103 400H-99V404H-103V400Z" fill="#E5E7EB"/>
<path d="M-83 400H-79V404H-83V400Z" fill="#E5E7EB"/>
<path d="M-63 400H-59V404H-63V400Z" fill="#E5E7EB"/>
<path d="M-43 400H-39V404H-43V400Z" fill="#E5E7EB"/>
<path d="M-23 400H-19V404H-23V400Z" fill="#E5E7EB"/>
<path d="M-3 400H1V404H-3V400Z" fill="#E5E7EB"/>
<path d="M17 400H21V404H17V400Z" fill="#E5E7EB"/>
<path d="M37 400H41V404H37V400Z" fill="#E5E7EB"/>
<path d="M57 400H61V404H57V400Z" fill="#E5E7EB"/>
<path d="M77 400H81V404H77V400Z" fill="#E5E7EB"/>
<path d="M97 400H101V404H97V400Z" fill="#E5E7EB"/>
<path d="M117 400H121V404H117V400Z" fill="#E5E7EB"/>
<path d="M137 400H141V404H137V400Z" fill="#E5E7EB"/>
<path d="M157 400H161V404H157V400Z" fill="#E5E7EB"/>
<path d="M177 400H181V404H177V400Z" fill="#E5E7EB"/>
<path d="M197 400H201V404H197V400Z" fill="#E5E7EB"/>
<path d="M217 400H221V404H217V400Z" fill="#E5E7EB"/>
<path d="M237 400H241V404H237V400Z" fill="#E5E7EB"/>
</svg>
